<?xml version="1.0" encoding="UTF-8" standalone="no"?>
<!DOCTYPE svg PUBLIC "-//W3C//DTD SVG 1.1//EN" "http://www.w3.org/Graphics/SVG/1.1/DTD/svg11.dtd">
<!-- Created with Vectornator (http://vectornator.io/) -->
<svg height="100%" stroke-miterlimit="10" style="fill-rule:nonzero;clip-rule:evenodd;stroke-linecap:round;stroke-linejoin:round;" version="1.1" viewBox="0 0 1679.21 2024.8" width="100%" xml:space="preserve" xmlns="http://www.w3.org/2000/svg" xmlns:vectornator="http://vectornator.io" xmlns:xlink="http://www.w3.org/1999/xlink">
<defs/>
<g id="Camada-4" vectornator:layerName="Camada 4">
<g opacity="1">
<path d="M454.143 914.897C345.547 968.732 357.383 1167.58 536.501 1103.76C689.51 1049.25 557.7 863.56 454.143 914.897Z" fill="#ffffff" fill-rule="nonzero" opacity="1" stroke="#ffffff" stroke-linecap="round" stroke-linejoin="round" stroke-width="116.355"/>
<path d="M1009.82 908.995C880.55 954.606 936.889 1191.89 1081.76 1127.37C1186.85 1080.57 1140.2 862.992 1009.82 908.995Z" fill="#ffffff" fill-rule="nonzero" opacity="1" stroke="#ffffff" stroke-linecap="round" stroke-linejoin="round" stroke-width="116.355"/>
<path d="M735.294 887.916C735.294 875.455 729.615 940.015 729.615 957.054C729.615 1015.8 722.042 1073.2 722.042 1132.43C722.042 1261.35 541.356 1245.11 574.366 1392.12C604.86 1527.92 877.29 1484.34 877.29 1360.08" fill="none" opacity="1" stroke="#ffffff" stroke-linecap="round" stroke-linejoin="round" stroke-width="116.355"/>
<path d="M493.881 1545.47C536.4 1659.08 1000.18 1614.6 1030.8 1532.79" fill="none" opacity="1" stroke="#ffffff" stroke-linecap="round" stroke-linejoin="round" stroke-width="116.355"/>
<path d="M691.142 1688.24C718.443 1700.4 811.212 1700.33 834.237 1679.82" fill="none" opacity="1" stroke="#ffffff" stroke-linecap="round" stroke-linejoin="round" stroke-width="116.355"/>
<path d="M1239.45 1157.29C1224.25 1157.29 1310.63 936.744 1418.48 1064.83C1477.61 1135.04 1378.63 1416.92 1249.98 1359.62" fill="none" opacity="1" stroke="#ffffff" stroke-linecap="round" stroke-linejoin="round" stroke-width="116.355"/>
<path d="M1298.13 1173.37C1290.02 1158.93 1308.95 1142.56 1316.18 1131.83C1389.59 1022.85 1371.37 1264.03 1298.13 1296.64" fill="none" opacity="1" stroke="#ffffff" stroke-linecap="round" stroke-linejoin="round" stroke-width="116.355"/>
<path d="M374.007 673.303C368.809 766.201 363.85 1118.67 363.85 1194.81C363.85 1370.94 364.036 1630.77 497.748 1773.68C874.82 2176.7 1237.95 1711.26 1237.95 1359.62" fill="none" opacity="1" stroke="#ffffff" stroke-linecap="round" stroke-linejoin="round" stroke-width="116.355"/>
<path d="M1232.16 1157.2C1230.21 1157.2 1233.04 1097.2 1233.04 1085.24C1233.04 1006.12 1265.11 766.808 1265.11 687.378" fill="none" opacity="1" stroke="#ffffff" stroke-linecap="round" stroke-linejoin="round" stroke-width="116.355"/>
<path d="M592.265 531.004C515.777 567.359 411.33 651.943 317.138 669.851C213.884 689.482 54.0613 625.27 93.4757 618.119C190.806 600.462 221.977 572.092 252.008 535.023C283.287 496.414 287.698 471.555 313.725 415.252" fill="none" opacity="1" stroke="#ffffff" stroke-linecap="round" stroke-linejoin="round" stroke-width="116.355"/>
<path d="M410.005 427.39C385.354 423.074 290.229 392.851 284.505 391.219C217.405 372.083 8.60044 193.075 105.354 216.349C192.645 237.347 437.853 251.618 490.619 261.65C592.956 281.107 704.737 137.014 796.357 126.127C836.965 121.302 914.62 244.244 1044.19 215.736" fill="none" opacity="1" stroke="#ffffff" stroke-linecap="round" stroke-linejoin="round" stroke-width="116.355"/>
<path d="M1240.78 1465.27C1266.15 1487.87 1361.32 1358.78 1377.48 1339.59C1449.02 1254.63 1546.6 710.167 1523.94 609.266" fill="none" opacity="1" stroke="#ffffff" stroke-linecap="round" stroke-linejoin="round" stroke-width="116.355"/>
<path d="M1251.39 682.882C1164.69 760.104 1042.78 550.399 983.782 537.262C897.34 518.014 670.721 669.529 594.265 533.334" fill="none" opacity="1" stroke="#ffffff" stroke-linecap="round" stroke-linejoin="round" stroke-width="116.355"/>
<path d="M1523.8 606.835C1547.4 554.266 1551.31 429.128 1448.26 314.701C1335.08 189.019 1211.86 333.153 1211.86 81.8305" fill="none" opacity="1" stroke="#ffffff" stroke-linecap="round" stroke-linejoin="round" stroke-width="116.355"/>
<path d="M1207.45 84.0629C1231.14 53.6952 1070.92 186.027 1060.22 195.565C1013.34 237.315 1011.66 344.812 1095.49 344.812" fill="none" opacity="1" stroke="#ffffff" stroke-linecap="round" stroke-linejoin="round" stroke-width="116.355"/>
<path d="M733.54 868.367C717.792 908.93 380.389 877.59 390.395 843.699C418.889 747.185 771.763 769.915 733.54 868.367Z" fill="#0a0900" fill-rule="nonzero" opacity="1" stroke="#ffffff" stroke-linecap="round" stroke-linejoin="round" stroke-width="116.355"/>
<path d="M1035.25 808.207C920.072 804.395 864.494 827.532 889.024 874.517C894.861 885.696 1161.69 901.976 1186.96 885.116C1244.22 846.927 1215.81 814.182 1035.25 808.207Z" fill="#0a0900" fill-rule="nonzero" opacity="1" stroke="#ffffff" stroke-linecap="round" stroke-linejoin="round" stroke-width="116.355"/>
</g>
</g>
<g id="Camada-2" vectornator:layerName="Camada 2">
<g opacity="1">
<path d="M499.645 1743.79C401.706 1667.61 341.635 690.103 400.72 639.459C552.394 509.453 636.368 641.97 739.892 613.214C1083.46 517.778 904.82 608.296 1173.95 698.007C1203.06 707.71 1261.39 670.989 1276.91 702.045C1304.57 757.358 1189.84 1142.95 1236.54 1156.29C1282.76 1169.5 1279.09 1033.14 1337.48 1033.14C1425.96 1033.14 1434.47 1104.65 1422.27 1158.31C1397.6 1266.87 1231.25 1315.37 1220.39 1364.24C1187.92 1510.32 1184.04 1654.34 1070.99 1776.09C754.955 2116.43 391.745 1747.81 352.267 1392.5" fill="#96685b" fill-rule="nonzero" opacity="1" stroke="none"/>
<path d="M439.079 1656.98C370.529 1596.99 329.31 1079.97 406.777 1065.44C520.09 1044.2 482.326 1261.68 521.853 1297.61C595.515 1364.58 741.316 1508.64 802.477 1606.5" fill="#96685b" fill-rule="nonzero" opacity="1" stroke="none"/>
<path d="M433.022 637.44C694.354 474.108 557.373 661.176 727.779 623.308C809.61 605.124 867.702 554.822 959.95 544.572" fill="#96685b" fill-rule="nonzero" opacity="1" stroke="none"/>
<path d="M517.815 601.101C504.603 455.766 669.341 611.195 709.609 611.195C803.847 611.195 910.524 504.805 1016.48 554.666C1099.66 593.811 1123.46 708.324 1230.48 720.215" fill="#96685b" fill-rule="nonzero" opacity="1" stroke="none"/>
<path d="M1125.5 1342.03C1108.09 1376.84 1094.4 1628.96 1188.08 1554.01C1244.21 1509.11 1249.49 1356.42 1264.8 1287.52" fill="#96685b" fill-rule="nonzero" opacity="1" stroke="none"/>
<path d="M1210.29 1319.82C1196.09 1447.63 1401.34 1274.16 1422.27 1214.84C1485.3 1036.26 1294.71 975.834 1240.57 1156.29" fill="#96685b" fill-rule="nonzero" opacity="1" stroke="none"/>
<path d="M1216.35 1329.92C1332.47 1402.49 1394.95 1287.33 1418.24 1182.54" fill="#96685b" fill-rule="nonzero" opacity="1" stroke="none"/>
</g>
<g opacity="1">
<path d="M719.703 320.476C755.313 412.045 967.102 383.062 1028.59 383.062" fill="#0d0401" fill-rule="nonzero" opacity="1" stroke="none"/>
<path d="M418.89 421.42C391.187 402.952 63.743 307.397 114.039 223.57C149.031 165.25 508.026 283.12 588.476 251.834C659.314 224.286 745.553 120.607 822.666 120.607C891.144 120.607 953.648 277.193 1060.89 223.57C1091.68 208.178 1182.19 96.3805 1206.25 96.3805C1272.48 96.3805 1242.63 230.873 1291.05 276.061C1331.73 314.034 1393.59 258.822 1434.39 308.363C1549.83 448.549 1589.13 914.743 1450.54 1053.33C1414.54 1089.33 1382.84 1019.01 1357.67 1019.01C1310.72 1019.01 1241.47 1135.1 1226.44 1067.46C1218.93 1033.67 1316.67 647.767 1291.05 643.497C1260.07 638.334 1203.57 698.939 1137.61 653.592C1085.76 617.946 1084.05 515.401 1032.63 496.119C946.997 464.007 885.012 570.443 806.515 586.968C685.212 612.506 659.887 538.176 592.514 508.232C585.709 505.208 549.002 557.286 538.004 560.723C464.831 583.59 300.347 701.594 202.87 663.686C53.6764 605.666 226.766 560.944 263.436 536.496C304.708 508.982 304.486 450.247 336.116 413.345" fill="#0d0401" fill-rule="nonzero" opacity="1" stroke="none"/>
<path d="M600.589 469.873C525.958 589.283 719.349 546.524 760.081 528.421" fill="#0d0401" fill-rule="nonzero" opacity="1" stroke="none"/>
<path d="M679.326 522.364C545.462 573.85 899.413 548.593 984.177 500.157C1025.52 476.533 1083.64 653.055 1141.65 595.044C1315.51 421.186 892.881 434.184 838.817 439.59" fill="#0d0401" fill-rule="nonzero" opacity="1" stroke="none"/>
<path d="M616.74 481.987C539.245 559.482 759.884 627.887 784.307 560.723" fill="#0d0401" fill-rule="nonzero" opacity="1" stroke="none"/>
<path d="M917.554 477.949C921.642 500.438 1083.85 602.375 1087.14 599.082C1134.38 551.845 950.598 451.005 949.856 447.666" fill="#0d0401" fill-rule="nonzero" opacity="1" stroke="none"/>
<path d="M1145.69 617.252C1176.27 701.349 1219.81 687.912 1289.03 687.912C1293.03 687.912 1350.74 699.318 1343.54 710.12C1325.01 737.913 1284.5 589.811 1282.97 582.931" fill="#0d0401" fill-rule="nonzero" opacity="1" stroke="none"/>
<path d="M1303.16 760.592C1254.34 687.365 1297.53 589.451 1347.58 702.045" fill="#0d0401" fill-rule="nonzero" opacity="1" stroke="none"/>
<path d="M1422.27 1035.16C1439.39 1112.17 1466.74 1025.5 1462.65 988.726" fill="#0d0401" fill-rule="nonzero" opacity="1" stroke="none"/>
<path d="M1450.54 1067.46C1370.67 997.575 1470.73 1098.11 1470.73 994.782" fill="#0d0401" fill-rule="nonzero" opacity="1" stroke="none"/>
<path d="M1511.1 550.629C1507.32 584.647 1528.95 485.987 1527.26 453.722C1523.99 391.701 1404.31 261.751 1341.52 247.797C1273.72 232.731 995.627 405.269 1173.95 405.269" fill="#0d0401" fill-rule="nonzero" opacity="1" stroke="none"/>
<path d="M1113.38 209.438C1041.21 407.922 1167.77-36.4654 1200.2 201.362C1205.23 238.292 1203.4 275.343 1206.25 312.401" fill="#0d0401" fill-rule="nonzero" opacity="1" stroke="none"/>
<path d="M1002.35 280.099C981.691 176.82 1131.7 80.6615 1192.12 261.929" fill="#0d0401" fill-rule="nonzero" opacity="1" stroke="none"/>
<path d="M1260.76 1368.28C1226.08 1372.3 1227.7 1457.77 1280.95 1442.97C1363.36 1420.08 1322.43 1361.12 1260.76 1368.28Z" fill="#0d0401" fill-rule="nonzero" opacity="1" stroke="none"/>
</g>
</g>
<g id="Camada-1" vectornator:layerName="Camada 1">
<g opacity="1">
<path d="M456.994 912.046C348.398 965.881 360.234 1164.73 539.351 1100.91C692.361 1046.4 560.55 860.709 456.994 912.046Z" fill="#ffffff" fill-rule="nonzero" opacity="1" stroke="#000000" stroke-linecap="round" stroke-linejoin="round" stroke-width="45.2748"/>
<path d="M1012.67 906.144C883.4 951.756 939.74 1189.04 1084.61 1124.52C1189.7 1077.72 1143.05 860.142 1012.67 906.144Z" fill="#ffffff" fill-rule="nonzero" opacity="1" stroke="#000000" stroke-linecap="round" stroke-linejoin="round" stroke-width="45.2748"/>
<path d="M738.145 885.065C738.145 872.605 732.465 937.164 732.465 954.203C732.465 1012.95 724.892 1070.34 724.892 1129.58C724.892 1258.5 544.207 1242.26 577.217 1389.27C607.71 1525.07 880.141 1481.49 880.141 1357.23" fill="none" opacity="1" stroke="#000000" stroke-linecap="round" stroke-linejoin="round" stroke-width="45.2748"/>
<path d="M496.731 1542.62C539.25 1656.23 1003.03 1611.75 1033.65 1529.94" fill="none" opacity="1" stroke="#000000" stroke-linecap="round" stroke-linejoin="round" stroke-width="45.2748"/>
<path d="M693.992 1685.39C721.293 1697.55 814.063 1697.48 837.088 1676.97" fill="none" opacity="1" stroke="#000000" stroke-linecap="round" stroke-linejoin="round" stroke-width="45.2748"/>
<path d="M1242.3 1154.43C1227.1 1154.43 1313.48 933.893 1421.33 1061.97C1480.46 1132.19 1381.48 1414.07 1252.83 1356.77" fill="none" opacity="1" stroke="#000000" stroke-linecap="round" stroke-linejoin="round" stroke-width="45.2748"/>
<path d="M1300.98 1170.51C1292.87 1156.08 1311.8 1139.71 1319.03 1128.97C1392.44 1020 1374.22 1261.18 1300.98 1293.79" fill="none" opacity="1" stroke="#000000" stroke-linecap="round" stroke-linejoin="round" stroke-width="45.2748"/>
<path d="M376.858 670.452C371.66 763.35 366.7 1115.82 366.7 1191.95C366.7 1368.09 366.886 1627.92 500.598 1770.83C877.671 2173.85 1240.8 1708.41 1240.8 1356.77" fill="none" opacity="1" stroke="#000000" stroke-linecap="round" stroke-linejoin="round" stroke-width="45.2748"/>
<path d="M1235.01 1154.35C1233.06 1154.35 1235.89 1094.34 1235.89 1082.39C1235.89 1003.27 1267.96 763.957 1267.96 684.527" fill="none" opacity="1" stroke="#000000" stroke-linecap="round" stroke-linejoin="round" stroke-width="45.2748"/>
<path d="M595.116 528.153C518.628 564.509 414.181 649.093 319.989 667.001C216.735 686.632 56.9119 622.419 96.3263 615.268C193.656 597.611 224.828 569.241 254.859 532.172C286.138 493.563 290.548 468.704 316.576 412.401" fill="none" opacity="1" stroke="#000000" stroke-linecap="round" stroke-linejoin="round" stroke-width="45.2748"/>
<path d="M412.855 424.54C388.205 420.223 293.079 390 287.356 388.368C220.256 369.232 11.4511 190.224 108.205 213.499C195.496 234.497 440.703 248.767 493.469 258.799C595.807 278.256 707.588 134.163 799.207 123.277C839.815 118.451 917.471 241.393 1047.04 212.885" fill="none" opacity="1" stroke="#000000" stroke-linecap="round" stroke-linejoin="round" stroke-width="45.2748"/>
<path d="M1243.63 1462.42C1269 1485.02 1364.17 1355.93 1380.33 1336.74C1451.87 1251.78 1549.45 707.316 1526.79 606.415" fill="none" opacity="1" stroke="#000000" stroke-linecap="round" stroke-linejoin="round" stroke-width="45.2748"/>
<path d="M1254.24 680.032C1167.54 757.253 1045.63 547.548 986.632 534.411C900.19 515.163 673.571 666.678 597.116 530.484" fill="none" opacity="1" stroke="#000000" stroke-linecap="round" stroke-linejoin="round" stroke-width="45.2748"/>
<path d="M1526.65 603.984C1550.25 551.415 1554.16 426.277 1451.11 311.85C1337.93 186.169 1214.71 330.303 1214.71 78.9799" fill="none" opacity="1" stroke="#000000" stroke-linecap="round" stroke-linejoin="round" stroke-width="45.2748"/>
<path d="M1210.3 81.2123C1233.99 50.8446 1073.78 183.176 1063.07 192.715C1016.19 234.465 1014.51 341.961 1098.34 341.961" fill="none" opacity="1" stroke="#000000" stroke-linecap="round" stroke-linejoin="round" stroke-width="45.2748"/>
<path d="M736.391 865.516C720.643 906.079 383.239 874.739 393.245 840.848C421.74 744.334 774.614 767.065 736.391 865.516Z" fill="#0a0900" fill-rule="nonzero" opacity="1" stroke="#000000" stroke-linecap="round" stroke-linejoin="round" stroke-width="45.2748"/>
<path d="M1038.1 805.356C922.923 801.545 867.344 824.682 891.875 871.666C897.712 882.846 1164.54 899.125 1189.81 882.265C1247.07 844.076 1218.66 811.331 1038.1 805.356Z" fill="#0a0900" fill-rule="nonzero" opacity="1" stroke="#000000" stroke-linecap="round" stroke-linejoin="round" stroke-width="45.2748"/>
</g>
</g>
<g id="Camada-3" opacity="0.6" vectornator:layerName="Camada 3">
<g opacity="1">
<g opacity="1" vectornator:blendMode="multiply">
<path d="M360.343 912.008C348.229 998.82 421.434 891.007 524.874 915.832C628.313 940.658 658.108 968.246 663.888 998.039C668.513 1021.88 679.781 1036.33 656.806 1130.85C633.831 1225.37 563.439 1339.88 572.788 1330.53C581.112 1322.21 696.451 1215.37 713.125 1174.73C729.798 1134.09 736.034 1011.69 737.873 998.82C764.718 810.906 607.609 776.164 491.983 796.777C426.746 808.406 364.712 880.696 360.343 912.008Z" fill="#0d0401" fill-rule="nonzero" opacity="1" stroke="none"/>
<path d="M661.156 932.197C655.312 935.119 657.118 932.711 657.118 940.273" fill="#0d0401" fill-rule="nonzero" opacity="1" stroke="none"/>
<path d="M24.6894 911.61C29.6395 918.682 27.849 915.275 30.5436 921.563" fill="#0d0401" fill-rule="nonzero" opacity="1" stroke="none"/>
<path d="M392.919 1081.97C382.02 1114.67 518.968 1115.88 535.176 1111.82C563.57 1104.73 619.606 969.991 628.719 1012.78C671.332 1212.88 297.393 1201.01 376.527 1042.74" fill="#0d0401" fill-rule="nonzero" opacity="1" stroke="none"/>
<path d="M584.838 1417.55C577.611 1404.98 608.408 1432.97 619.907 1441.16C652.446 1464.31 684.469 1462.2 723.726 1462.26C753.534 1462.3 809.436 1454.81 830.19 1429.65C836.315 1422.23 880.67 1413.05 878.791 1417.4C802.658 1593.45 532.708 1515.4 559.051 1397.99C564.907 1371.89 628.217 1432.51 630.964 1437.29" fill="#0d0401" fill-rule="nonzero" opacity="1" stroke="none"/>
<path d="M698.573 1677.28C702.217 1696.62 858.058 1655.65 853.655 1693.97C846.364 1757.42 702.818 1741.37 681.586 1695.16C675.573 1682.08 694.922 1657.89 698.573 1677.28Z" fill="#0d0401" fill-rule="nonzero" opacity="1" stroke="none"/>
</g>
<path d="M943.036 1078.58C932.136 1111.28 1018.88 1128.83 1035.59 1128.77C1162.56 1128.3 1153.91 983.546 1163.02 1026.34C1205.63 1226.43 857.569 1210.76 931.162 1035.97" fill="#0d0401" fill-rule="nonzero" opacity="1" stroke="none"/>
<path d="M1204.83 835.579C1204.41 824.867 1232.94 843.203 1234.21 852.999C1238.98 889.745 1211.75 916.65 1187.74 922.223C1166.58 927.136 1090.83 920.301 1039.97 918.833C948.062 916.181 849.153 921.227 872.758 850.86C896.203 780.972 1092.76 816.359 1132.52 832.322C1148.49 838.734 1204.98 839.358 1204.83 835.579Z" fill="#000000" fill-rule="nonzero" opacity="1" stroke="none"/>
<path d="M1311.92 1172.71C1304.3 1187.95 1341.42 1100.83 1363.27 1131.41C1370.03 1140.87 1325.51 1302.19 1302.99 1302.19C1257.46 1302.19 1317.5 1164.92 1323.08 1148.15" fill="#0d0401" fill-rule="nonzero" opacity="1" stroke="none"/>
</g>
</g>
</svg>
